<svg width="192" height="48" viewBox="0 0 192 48" fill="none" xmlns="http://www.w3.org/2000/svg">
<path d="M0 24C0 30.6274 5.37258 36 12 36V24C12 30.6274 17.3726 36 24 36V24C24 30.6274 29.3726 36 36 36C42.6274 36 48 30.6274 48 24C48 17.3726 42.6274 12 36 12C29.3726 12 24 17.3726 24 24V12C17.3726 12 12 17.3726 12 24V12C5.37258 12 0 17.3726 0 24Z" fill="#7A7A7C" fill-opacity="0.8"/>
<path d="M58 33.0005V14.6405H62.32V29.4905H70.393V33.0005H58Z" fill="#7A7A7C" fill-opacity="0.8"/>
<path d="M71.9299 17.0165V13.5605H76.0609V17.0165H71.9299ZM71.9299 33.0005V18.4745H76.0609V33.0005H71.9299Z" fill="#7A7A7C" fill-opacity="0.8"/>
<path d="M83.6441 33.0275C79.9721 33.0275 77.6771 30.1655 77.6771 25.5485C77.6771 20.7155 80.0261 18.0155 83.6441 18.0155C85.2641 18.0155 86.5331 18.6365 87.4241 19.8245V18.4745H91.5551V33.4865C91.5551 37.3745 88.8011 39.3995 84.9941 39.3995C81.2951 39.3995 78.6221 37.7795 78.1091 34.2425H82.2401C82.4021 35.5385 83.5091 36.2405 84.9401 36.2405C86.4251 36.2405 87.4241 35.5655 87.4241 33.5405V31.1105C86.5061 32.3795 85.2101 33.0275 83.6441 33.0275ZM84.6431 29.6795C86.4791 29.6795 87.4241 28.2215 87.4241 25.5215C87.4241 22.8485 86.4521 21.3635 84.6431 21.3635C82.8611 21.3635 81.9161 22.8215 81.9161 25.5485C81.9161 28.1945 82.8611 29.6795 84.6431 29.6795Z" fill="#7A7A7C" fill-opacity="0.8"/>
<path d="M93.8157 33.0005V13.5605H97.9467V20.3915C98.8917 18.7715 100.377 18.0155 102.159 18.0155C104.94 18.0155 107.019 19.7165 107.019 23.3075V33.0005H102.888V24.1445C102.888 22.3085 102.159 21.3635 100.647 21.3635C98.9997 21.3635 97.9467 22.7945 97.9467 24.6575V33.0005H93.8157Z" fill="#7A7A7C" fill-opacity="0.8"/>
<path d="M109.821 28.2755V21.6065H108.039V18.4745H109.821V15.0995H113.952V18.4745H116.922V21.6065H113.952V27.7625C113.952 29.1665 114.33 29.9495 116.112 29.9495H116.895V33.0545C116.436 33.2705 115.518 33.4325 114.411 33.4325C111.306 33.4325 109.821 31.6505 109.821 28.2755Z" fill="#7A7A7C" fill-opacity="0.8"/>
<path d="M121.824 22.4975C121.824 25.3595 130.815 22.8485 130.815 28.5995C130.815 31.4615 128.169 33.4325 124.389 33.4325C120.717 33.4325 118.071 31.8125 117.531 28.2215H121.662C121.851 29.5715 122.958 30.3005 124.497 30.3005C125.955 30.3005 126.684 29.7335 126.684 28.8425C126.684 26.0345 117.882 28.5455 117.882 22.7135C117.882 20.2835 119.853 18.0155 123.741 18.0155C127.224 18.0155 129.87 19.6085 130.275 23.2805H126.171C125.928 21.7955 125.064 21.1745 123.606 21.1745C122.526 21.1745 121.824 21.7145 121.824 22.4975Z" fill="#7A7A7C" fill-opacity="0.8"/>
<path d="M136.484 38.9675H132.353V18.4745H136.484V19.9865C137.375 18.7175 138.617 18.0155 140.129 18.0155C143.882 18.0155 146.231 20.9585 146.231 25.7105C146.231 30.6515 143.828 33.4325 140.129 33.4325C138.59 33.4325 137.348 32.7845 136.484 31.5425V38.9675ZM139.265 21.3635C137.429 21.3635 136.484 22.9025 136.484 25.7105C136.484 28.5185 137.456 30.0845 139.265 30.0845C141.047 30.0845 141.992 28.5455 141.992 25.7105C141.992 22.9025 141.02 21.3635 139.265 21.3635Z" fill="#7A7A7C" fill-opacity="0.8"/>
<path d="M161.56 28.2215C160.804 31.5695 158.104 33.4325 154.54 33.4325C150.031 33.4325 147.25 30.5165 147.25 25.7375C147.25 20.7965 150.058 18.0155 154.378 18.0155C158.725 18.0155 161.452 20.9045 161.452 25.6565V26.5745H151.462C151.678 28.8965 152.758 30.1385 154.54 30.1385C155.89 30.1385 156.808 29.5445 157.24 28.2215H161.56ZM154.378 21.3095C152.839 21.3095 151.867 22.3085 151.543 24.1985H157.186C156.862 22.3085 155.89 21.3095 154.378 21.3095Z" fill="#7A7A7C" fill-opacity="0.8"/>
<path d="M176.866 28.2215C176.11 31.5695 173.41 33.4325 169.846 33.4325C165.337 33.4325 162.556 30.5165 162.556 25.7375C162.556 20.7965 165.364 18.0155 169.684 18.0155C174.031 18.0155 176.758 20.9045 176.758 25.6565V26.5745H166.768C166.984 28.8965 168.064 30.1385 169.846 30.1385C171.196 30.1385 172.114 29.5445 172.546 28.2215H176.866ZM169.684 21.3095C168.145 21.3095 167.173 22.3085 166.849 24.1985H172.492C172.168 22.3085 171.196 21.3095 169.684 21.3095Z" fill="#7A7A7C" fill-opacity="0.8"/>
<path d="M183.938 33.4325C180.212 33.4325 177.863 30.5165 177.863 25.7375C177.863 20.7965 180.266 18.0155 183.938 18.0155C185.477 18.0155 186.719 18.6635 187.61 19.9055V13.5605H191.741V33.0005H187.61V31.4615C186.719 32.7305 185.45 33.4325 183.938 33.4325ZM184.829 30.0845C186.665 30.0845 187.61 28.5725 187.61 25.7375C187.61 22.9295 186.638 21.3635 184.829 21.3635C183.047 21.3635 182.102 22.9025 182.102 25.7375C182.102 28.5455 183.074 30.0845 184.829 30.0845Z" fill="#7A7A7C" fill-opacity="0.8"/>
</svg>
