<svg width="188" height="48" viewBox="0 0 188 48" fill="none" xmlns="http://www.w3.org/2000/svg">
<path d="M0 15.8981L17.3455 15.8981L0.284186 32.9594L3.04056 35.7158L20.1019 18.6545V36H20.2123L24 32.2123L24 16.2485L19.7515 12L3.78554 12L5.31539e-08 15.7855L0 15.8981Z" fill="#7A7A7C" fill-opacity="0.8"/>
<path d="M47.26 25.5644H50.562V28.6324H47.26V33.0004H43.594V28.6324H34V25.9544L43.932 14.1764H47.26V25.5644ZM38.68 25.5644H43.594V19.5584L38.68 25.5644Z" fill="#7A7A7C" fill-opacity="0.8"/>
<path d="M59.7711 20.2084C61.0537 20.2084 62.1977 20.4597 63.2031 20.9624C64.2257 21.465 65.0231 22.2104 65.5951 23.1984C66.1844 24.1864 66.4791 25.3737 66.4791 26.7604C66.4791 28.823 65.8291 30.435 64.5291 31.5964C63.2291 32.7404 61.4004 33.3124 59.0431 33.3124C57.4137 33.3124 56.0444 33.0437 54.9351 32.5064C53.8431 31.969 53.0111 31.2584 52.4391 30.3744C51.8844 29.4904 51.5637 28.5197 51.4771 27.4624H55.2211C55.7757 29.473 57.0411 30.4784 59.0171 30.4784C60.2304 30.4784 61.1491 30.1404 61.7731 29.4644C62.4144 28.7884 62.7351 27.8784 62.7351 26.7344C62.7351 25.573 62.4144 24.6717 61.7731 24.0304C61.1317 23.3717 60.2217 23.0424 59.0431 23.0424C57.4831 23.0424 56.2871 23.6924 55.4551 24.9924L52.0751 24.6544L53.3491 14.1764H65.3871V17.2444H56.3911L55.8191 21.5604C56.7551 20.659 58.0724 20.2084 59.7711 20.2084Z" fill="#7A7A7C" fill-opacity="0.8"/>
<path d="M80.9103 14.1764C83.5276 14.1764 85.8936 14.8004 88.0083 16.0484C90.1403 17.279 91.2063 19.7924 91.2063 23.5884C91.2063 27.3844 90.1403 29.9064 88.0083 31.1544C85.8936 32.385 83.5276 33.0004 80.9103 33.0004H74.5663V14.1764H80.9103ZM80.7803 29.7244C81.9763 29.707 83.0423 29.5684 83.9783 29.3084C84.9316 29.031 85.7376 28.4417 86.3963 27.5404C87.0723 26.639 87.4103 25.3217 87.4103 23.5884C87.4103 21.855 87.0723 20.5377 86.3963 19.6364C85.7376 18.735 84.9316 18.1457 83.9783 17.8684C83.0423 17.591 81.9763 17.4524 80.7803 17.4524H78.2323V29.7244H80.7803Z" fill="#7A7A7C" fill-opacity="0.8"/>
<path d="M99.8086 18.7004C101.317 18.7004 102.608 19.0384 103.683 19.7144C104.775 20.373 105.581 21.3177 106.101 22.5484C106.638 23.779 106.863 25.2264 106.777 26.8904H96.2726C96.394 28.069 96.7666 28.9617 97.3906 29.5684C98.0146 30.175 98.8293 30.4784 99.8346 30.4784C100.719 30.4784 101.429 30.2617 101.967 29.8284C102.521 29.395 102.894 28.849 103.085 28.1904H106.699C106.387 29.8197 105.615 31.085 104.385 31.9864C103.171 32.8704 101.655 33.3124 99.8346 33.3124C98.344 33.3124 97.0526 33.009 95.9606 32.4024C94.8686 31.7957 94.0366 30.9464 93.4646 29.8544C92.8926 28.745 92.6066 27.4624 92.6066 26.0064C92.6066 24.5677 92.9013 23.2937 93.4906 22.1844C94.08 21.075 94.9206 20.217 96.0126 19.6104C97.1046 19.0037 98.37 18.7004 99.8086 18.7004ZM103.163 24.6024C103.059 23.6664 102.721 22.9124 102.149 22.3404C101.594 21.7684 100.805 21.4824 99.7826 21.4824C98.8466 21.4824 98.084 21.7424 97.4946 22.2624C96.9053 22.7824 96.5153 23.5624 96.3246 24.6024H103.163Z" fill="#7A7A7C" fill-opacity="0.8"/>
<path d="M122.024 19.0124V32.4284C122.024 34.2484 121.444 35.713 120.282 36.8224C119.121 37.949 117.422 38.5124 115.186 38.5124C113.245 38.5124 111.702 38.079 110.558 37.2124C109.414 36.363 108.738 35.219 108.53 33.7804H112.092C112.508 35.063 113.54 35.7044 115.186 35.7044C116.33 35.7044 117.162 35.4184 117.682 34.8464C118.202 34.2917 118.462 33.4684 118.462 32.3764V30.5044C117.492 31.995 116.027 32.7404 114.068 32.7404C112.838 32.7404 111.754 32.463 110.818 31.9084C109.9 31.3364 109.18 30.5217 108.66 29.4644C108.158 28.407 107.906 27.159 107.906 25.7204C107.906 24.2817 108.158 23.0337 108.66 21.9764C109.18 20.919 109.9 20.113 110.818 19.5584C111.754 18.9864 112.838 18.7004 114.068 18.7004C116.044 18.7004 117.509 19.4457 118.462 20.9364V19.0124H122.024ZM115.03 29.9324C116.192 29.9324 117.084 29.5424 117.708 28.7624C118.332 27.9824 118.644 26.9684 118.644 25.7204C118.644 24.4724 118.332 23.4584 117.708 22.6784C117.084 21.8984 116.192 21.5084 115.03 21.5084C113.852 21.5084 112.968 21.907 112.378 22.7044C111.806 23.4844 111.52 24.4897 111.52 25.7204C111.52 26.951 111.806 27.965 112.378 28.7624C112.968 29.5424 113.852 29.9324 115.03 29.9324Z" fill="#7A7A7C" fill-opacity="0.8"/>
<path d="M131.745 18.8564C132.04 18.8564 132.335 18.8824 132.629 18.9344V22.4964C132.317 22.4444 131.988 22.4184 131.641 22.4184C130.549 22.4184 129.734 22.6784 129.197 23.1984C128.66 23.701 128.322 24.299 128.183 24.9924C128.044 25.6684 127.975 26.457 127.975 27.3584V33.0004H124.413V19.0124H127.923V21.4044C128.686 19.7057 129.96 18.8564 131.745 18.8564Z" fill="#7A7A7C" fill-opacity="0.8"/>
<path d="M140.6 18.7004C142.108 18.7004 143.4 19.0384 144.474 19.7144C145.566 20.373 146.372 21.3177 146.892 22.5484C147.43 23.779 147.655 25.2264 147.568 26.8904H137.064C137.186 28.069 137.558 28.9617 138.182 29.5684C138.806 30.175 139.621 30.4784 140.626 30.4784C141.51 30.4784 142.221 30.2617 142.758 29.8284C143.313 29.395 143.686 28.849 143.876 28.1904H147.49C147.178 29.8197 146.407 31.085 145.176 31.9864C143.963 32.8704 142.446 33.3124 140.626 33.3124C139.136 33.3124 137.844 33.009 136.752 32.4024C135.66 31.7957 134.828 30.9464 134.256 29.8544C133.684 28.745 133.398 27.4624 133.398 26.0064C133.398 24.5677 133.693 23.2937 134.282 22.1844C134.872 21.075 135.712 20.217 136.804 19.6104C137.896 19.0037 139.162 18.7004 140.6 18.7004ZM143.954 24.6024C143.85 23.6664 143.512 22.9124 142.94 22.3404C142.386 21.7684 141.597 21.4824 140.574 21.4824C139.638 21.4824 138.876 21.7424 138.286 22.2624C137.697 22.7824 137.307 23.5624 137.116 24.6024H143.954Z" fill="#7A7A7C" fill-opacity="0.8"/>
<path d="M155.848 18.7004C157.356 18.7004 158.647 19.0384 159.722 19.7144C160.814 20.373 161.62 21.3177 162.14 22.5484C162.677 23.779 162.902 25.2264 162.816 26.8904H152.312C152.433 28.069 152.806 28.9617 153.43 29.5684C154.054 30.175 154.868 30.4784 155.874 30.4784C156.758 30.4784 157.468 30.2617 158.006 29.8284C158.56 29.395 158.933 28.849 159.124 28.1904H162.738C162.426 29.8197 161.654 31.085 160.424 31.9864C159.21 32.8704 157.694 33.3124 155.874 33.3124C154.383 33.3124 153.092 33.009 152 32.4024C150.908 31.7957 150.076 30.9464 149.504 29.8544C148.932 28.745 148.646 27.4624 148.646 26.0064C148.646 24.5677 148.94 23.2937 149.53 22.1844C150.119 21.075 150.96 20.217 152.052 19.6104C153.144 19.0037 154.409 18.7004 155.848 18.7004ZM159.202 24.6024C159.098 23.6664 158.76 22.9124 158.188 22.3404C157.633 21.7684 156.844 21.4824 155.822 21.4824C154.886 21.4824 154.123 21.7424 153.534 22.2624C152.944 22.7824 152.554 23.5624 152.364 24.6024H159.202Z" fill="#7A7A7C" fill-opacity="0.8"/>
<path d="M170.596 33.3124C168.481 33.3124 166.843 32.8444 165.682 31.9084C164.521 30.9724 163.862 29.7937 163.706 28.3724H167.268C167.736 29.863 168.871 30.6084 170.674 30.6084C171.506 30.6084 172.156 30.461 172.624 30.1664C173.092 29.8544 173.326 29.4557 173.326 28.9704C173.326 28.4504 173.066 28.0864 172.546 27.8784C172.043 27.653 171.177 27.4277 169.946 27.2024C168.802 27.0117 167.823 26.7864 167.008 26.5264C166.193 26.249 165.491 25.8157 164.902 25.2264C164.313 24.637 164.018 23.8484 164.018 22.8604C164.018 21.4564 164.607 20.4164 165.786 19.7404C166.965 19.047 168.403 18.7004 170.102 18.7004C171.974 18.7004 173.465 19.1077 174.574 19.9224C175.701 20.737 176.368 21.829 176.576 23.1984H173.014C172.806 22.6264 172.468 22.1844 172 21.8724C171.549 21.5604 170.891 21.4044 170.024 21.4044C169.279 21.4044 168.681 21.5257 168.23 21.7684C167.797 22.011 167.58 22.3404 167.58 22.7564C167.58 23.1204 167.753 23.4237 168.1 23.6664C168.464 23.8917 168.863 24.0564 169.296 24.1604C169.729 24.2644 170.475 24.4204 171.532 24.6284C173.404 24.975 174.765 25.4344 175.614 26.0064C176.463 26.5784 176.888 27.445 176.888 28.6064C176.888 30.0277 176.342 31.1717 175.25 32.0384C174.158 32.8877 172.607 33.3124 170.596 33.3124Z" fill="#7A7A7C" fill-opacity="0.8"/>
<path d="M183.019 22.5484C182.239 22.5484 181.511 22.375 180.835 22.0284C180.176 21.6644 179.647 21.153 179.249 20.4944C178.867 19.8357 178.677 19.073 178.677 18.2064C178.677 17.3397 178.867 16.577 179.249 15.9184C179.647 15.2597 180.176 14.757 180.835 14.4104C181.511 14.0464 182.239 13.8644 183.019 13.8644C183.799 13.8644 184.518 14.0464 185.177 14.4104C185.853 14.757 186.39 15.2684 186.789 15.9444C187.187 16.603 187.387 17.357 187.387 18.2064C187.387 19.0557 187.187 19.8184 186.789 20.4944C186.39 21.153 185.853 21.6644 185.177 22.0284C184.518 22.375 183.799 22.5484 183.019 22.5484ZM183.019 20.3644C183.608 20.3644 184.076 20.1737 184.423 19.7924C184.787 19.3937 184.969 18.865 184.969 18.2064C184.969 17.5477 184.787 17.0277 184.423 16.6464C184.076 16.265 183.608 16.0744 183.019 16.0744C182.447 16.0744 181.979 16.265 181.615 16.6464C181.268 17.0277 181.095 17.5477 181.095 18.2064C181.095 18.865 181.268 19.3937 181.615 19.7924C181.979 20.1737 182.447 20.3644 183.019 20.3644Z" fill="#7A7A7C" fill-opacity="0.8"/>
<path fill-rule="evenodd" clip-rule="evenodd" d="M183.035 16.2704C181.96 16.2704 181.09 17.1412 181.09 18.2154C181.09 19.2895 181.96 20.1604 183.035 20.1604C184.109 20.1604 184.98 19.2895 184.98 18.2154C184.98 17.1412 184.109 16.2704 183.035 16.2704ZM183.035 22.5704C185.44 22.5704 187.39 20.6206 187.39 18.2154C187.39 15.8102 185.44 13.8604 183.035 13.8604C180.629 13.8604 178.68 15.8102 178.68 18.2154C178.68 20.6206 180.629 22.5704 183.035 22.5704Z" fill="#7A7A7C" fill-opacity="0.8"/>
</svg>
