<svg width="168" height="48" viewBox="0 0 168 48" fill="none" xmlns="http://www.w3.org/2000/svg">
<path d="M22.16 23.08L13.32 14.24L22.16 5.4L31 14.24L22.16 23.08ZM33.44 34.36L24.6 25.52L33.44 16.68L42.28 25.52L33.44 34.36ZM10.88 34.36L2.04 25.52L10.88 16.68L19.72 25.52L10.88 34.36ZM22.16 45.64L13.32 36.8L22.16 27.96L31 36.8L22.16 45.64Z" fill="#367AFF"/>
<path d="M69.52 24.88H60.2V40H54.76V8.32H69.52V12.96H60.2V19.24H69.52V24.88ZM93.6991 29.88C93.6991 32.8667 92.6591 35.4 90.5791 37.48C88.5257 39.56 86.0057 40.6 83.0191 40.6C80.0057 40.6 77.4591 39.5733 75.3791 37.52C73.3257 35.44 72.2991 32.8933 72.2991 29.88C72.2991 26.8933 73.3391 24.3733 75.4191 22.32C77.4991 20.24 80.0324 19.2 83.0191 19.2C86.0057 19.2 88.5257 20.24 90.5791 22.32C92.6591 24.3733 93.6991 26.8933 93.6991 29.88ZM88.2991 29.88C88.2991 28.44 87.7791 27.2 86.7391 26.16C85.6991 25.12 84.4591 24.6 83.0191 24.6C81.5524 24.6 80.2991 25.12 79.2591 26.16C78.2191 27.1733 77.6991 28.4133 77.6991 29.88C77.6991 31.3467 78.2191 32.6 79.2591 33.64C80.2991 34.68 81.5524 35.2 83.0191 35.2C84.4857 35.2 85.7257 34.68 86.7391 33.64C87.7791 32.6 88.2991 31.3467 88.2991 29.88ZM107.238 24.6C105.771 24.6 104.518 25.12 103.478 26.16C102.438 27.1733 101.918 28.4133 101.918 29.88V40H96.5178V29.88C96.5178 26.8933 97.5578 24.3733 99.6378 22.32C101.718 20.24 104.251 19.2 107.238 19.2V24.6ZM146.556 40H141.156L141.116 29.88C141.116 28.4133 140.596 27.1733 139.556 26.16C138.543 25.12 137.303 24.6 135.836 24.6C133.863 24.6 132.356 25.44 131.316 27.12L131.356 27.16V40H125.956L125.916 29.88C125.916 28.44 125.396 27.2 124.356 26.16C123.316 25.12 122.076 24.6 120.636 24.6C119.17 24.6 117.916 25.12 116.876 26.16C115.836 27.1733 115.316 28.4133 115.316 29.88V40H109.916V29.88C109.916 26.8933 110.956 24.3733 113.036 22.32C115.116 20.24 117.65 19.2 120.636 19.2C123.596 19.2 126.13 20.2667 128.236 22.4C130.343 20.2667 132.876 19.2 135.836 19.2C138.823 19.2 141.356 20.24 143.436 22.32C145.516 24.3733 146.556 26.8933 146.556 29.88V40ZM165.57 33.88C165.57 35.16 165.144 36.32 164.29 37.36C162.584 39.44 160.157 40.44 157.01 40.36C155.757 40.3333 154.384 40.0533 152.89 39.52C151.424 38.9867 150.224 38.32 149.29 37.52L152.29 33.64C153.73 35 155.264 35.68 156.89 35.68H157.01C157.677 35.68 158.277 35.56 158.81 35.32C159.504 35 159.85 34.5467 159.85 33.96V33.8C159.77 33.1867 159.357 32.7467 158.61 32.48C158.317 32.4267 157.69 32.3067 156.73 32.12C155.53 31.88 154.517 31.5867 153.69 31.24C151.264 30.2 150.05 28.3733 150.05 25.76C150.05 23.2533 151.29 21.3733 153.77 20.12C154.864 19.56 156.05 19.2667 157.33 19.24C158.664 19.2133 160.05 19.44 161.49 19.92C163.144 20.48 164.317 21.2133 165.01 22.12L161.41 25.36C160.477 24.4267 159.464 23.96 158.37 23.96C156.664 23.96 155.81 24.52 155.81 25.64V25.72C155.81 26.2533 156.504 26.7067 157.89 27.08C157.997 27.1067 158.877 27.28 160.53 27.6C163.89 28.24 165.57 30.2933 165.57 33.76V33.88Z" fill="#1A2423"/>
</svg>
