<svg width="234" height="48" viewBox="0 0 234 48" fill="none" xmlns="http://www.w3.org/2000/svg">
<path d="M16 8L21.0912 18.9088L32 24L21.0912 29.0912L16 40L10.9088 29.0912L0 24L10.9088 18.9088L16 8Z" fill="#7A7A7C" fill-opacity="0.8"/>
<path opacity="0.5" d="M20.0469 31.3286L26.4008 30.2354L30.0008 40L33.6008 30.2354L43.8573 32L37.2009 24L43.8573 16L33.6008 17.7646L30.0008 8L26.4008 17.7646L20.0469 16.6714L21.0911 18.9088L31.9999 24L21.0911 29.0912L20.0469 31.3286Z" fill="#7A7A7C" fill-opacity="0.8"/>
<path d="M62.469 33.3478C56.031 33.3478 52 29.0848 52 22.2988C52 15.5998 56.263 11.1918 62.672 11.1918C68.037 11.1918 71.894 14.2658 72.561 19.0798H67.602C66.964 16.9338 65.137 15.7158 62.556 15.7158C59.076 15.7158 56.959 18.1808 56.959 22.2698C56.959 26.3008 59.105 28.8238 62.556 28.8238C65.195 28.8238 67.138 27.5188 67.718 25.4018H72.59C71.836 30.1868 67.834 33.3478 62.469 33.3478Z" fill="#7A7A7C" fill-opacity="0.8"/>
<path d="M74.108 25.7208C74.108 21.1388 77.472 18.0648 82.112 18.0648C86.723 18.0648 90.087 21.1388 90.087 25.7208C90.087 30.3028 86.723 33.3478 82.112 33.3478C77.472 33.3478 74.108 30.3028 74.108 25.7208ZM78.603 25.6918C78.603 27.8958 80.024 29.3458 82.112 29.3458C84.171 29.3458 85.592 27.8958 85.592 25.6918C85.592 23.5168 84.171 22.0668 82.112 22.0668C80.024 22.0668 78.603 23.5168 78.603 25.6918Z" fill="#7A7A7C" fill-opacity="0.8"/>
<path d="M96.8521 32.9998H92.3861V18.4998H96.5911L96.8811 20.0078C97.7801 18.7608 99.4331 18.0358 101.318 18.0358C104.769 18.0358 106.77 20.2398 106.77 24.0388V32.9998H102.304V25.1118C102.304 23.2848 101.289 22.0958 99.7521 22.0958C97.9831 22.0958 96.8521 23.2558 96.8521 25.0538V32.9998Z" fill="#7A7A7C" fill-opacity="0.8"/>
<path d="M108.469 28.4178H112.703C112.761 29.4328 113.515 30.0418 114.878 30.0418C116.27 30.0418 116.908 29.5488 116.908 28.7948C116.908 28.3598 116.676 27.8958 115.603 27.6638L112.935 27.0838C110.267 26.5038 108.962 25.3438 108.962 22.7918C108.962 19.7758 111.543 18.0358 115.023 18.0358C118.387 18.0358 120.736 20.0078 120.736 22.9368H116.502C116.502 21.9508 115.893 21.2838 114.82 21.2838C113.805 21.2838 113.167 21.8058 113.167 22.5888C113.167 23.2558 113.718 23.6328 114.733 23.8648L117.43 24.4448C119.808 24.9668 121.113 26.0688 121.113 28.3888C121.113 31.4918 118.474 33.3768 114.704 33.3768C110.876 33.3768 108.469 31.3468 108.469 28.4178Z" fill="#7A7A7C" fill-opacity="0.8"/>
<path d="M131.712 29.1138L132.234 32.7098C131.393 33.1158 130.291 33.3478 129.073 33.3478C126.086 33.3478 123.998 31.9848 123.998 27.9248V22.2118H121.794V18.4998H123.998V14.0048H128.464V18.4998H131.683V22.2118H128.464V26.9968C128.464 28.8238 129.189 29.3748 130.233 29.3748C130.668 29.3748 131.19 29.2878 131.712 29.1138Z" fill="#7A7A7C" fill-opacity="0.8"/>
<path d="M140.385 33.3768C136.006 33.3768 132.874 30.1868 132.874 25.7208C132.874 21.1968 135.919 18.0358 140.298 18.0358C144.851 18.0358 147.693 21.0228 147.693 25.7498V26.8808L137.166 26.9388C137.427 28.8528 138.5 29.7518 140.472 29.7518C142.154 29.7518 143.343 29.1428 143.662 28.0988H147.751C147.229 31.3178 144.358 33.3768 140.385 33.3768ZM140.327 21.6608C138.558 21.6608 137.572 22.4438 137.224 24.1838H143.256C143.256 22.6468 142.125 21.6608 140.327 21.6608Z" fill="#7A7A7C" fill-opacity="0.8"/>
<path d="M154.513 32.9998H150.047V11.1338H154.513V32.9998Z" fill="#7A7A7C" fill-opacity="0.8"/>
<path d="M162.04 32.9998H157.574V11.1338H162.04V32.9998Z" fill="#7A7A7C" fill-opacity="0.8"/>
<path d="M176.207 18.4998H180.296V32.9998H176.091L175.859 31.1438C175.018 32.2458 173.423 33.4058 171.132 33.4058C166.811 33.4058 164.317 30.0998 164.317 25.5178C164.317 20.8488 167.13 18.0358 171.161 18.0358C173.22 18.0358 175.163 18.9348 175.975 20.2688L176.207 18.4998ZM175.801 25.7498C175.801 23.5748 174.351 22.1248 172.263 22.1248C170.146 22.1248 168.812 23.6038 168.812 25.7498C168.812 27.8958 170.146 29.3748 172.263 29.3748C174.351 29.3748 175.801 27.9248 175.801 25.7498Z" fill="#7A7A7C" fill-opacity="0.8"/>
<path d="M191.915 29.1138L192.437 32.7098C191.596 33.1158 190.494 33.3478 189.276 33.3478C186.289 33.3478 184.201 31.9848 184.201 27.9248V22.2118H181.997V18.4998H184.201V14.0048H188.667V18.4998H191.886V22.2118H188.667V26.9968C188.667 28.8238 189.392 29.3748 190.436 29.3748C190.871 29.3748 191.393 29.2878 191.915 29.1138Z" fill="#7A7A7C" fill-opacity="0.8"/>
<path d="M196.206 16.2378C194.785 16.2378 193.654 15.1068 193.654 13.6858C193.654 12.2648 194.785 11.1628 196.206 11.1628C197.598 11.1628 198.729 12.2648 198.729 13.6858C198.729 15.1068 197.598 16.2378 196.206 16.2378ZM194.002 32.9998V18.4998H198.468V32.9998H194.002Z" fill="#7A7A7C" fill-opacity="0.8"/>
<path d="M200.745 25.7208C200.745 21.1388 204.109 18.0648 208.749 18.0648C213.36 18.0648 216.724 21.1388 216.724 25.7208C216.724 30.3028 213.36 33.3478 208.749 33.3478C204.109 33.3478 200.745 30.3028 200.745 25.7208ZM205.24 25.6918C205.24 27.8958 206.661 29.3458 208.749 29.3458C210.808 29.3458 212.229 27.8958 212.229 25.6918C212.229 23.5168 210.808 22.0668 208.749 22.0668C206.661 22.0668 205.24 23.5168 205.24 25.6918Z" fill="#7A7A7C" fill-opacity="0.8"/>
<path d="M223.489 32.9998H219.023V18.4998H223.228L223.518 20.0078C224.417 18.7608 226.07 18.0358 227.955 18.0358C231.406 18.0358 233.407 20.2398 233.407 24.0388V32.9998H228.941V25.1118C228.941 23.2848 227.926 22.0958 226.389 22.0958C224.62 22.0958 223.489 23.2558 223.489 25.0538V32.9998Z" fill="#7A7A7C" fill-opacity="0.8"/>
</svg>
