<svg width="188" height="48" viewBox="0 0 188 48" fill="none" xmlns="http://www.w3.org/2000/svg">
<path d="M24.9706 7.03358C21.8464 3.90938 16.781 3.90938 13.6569 7.03358L2.34315 18.3473C-0.781049 21.4715 -0.781049 26.5368 2.34315 29.661L13.6569 40.9747C16.781 44.0989 21.8464 44.0989 24.9706 40.9747L30.3688 35.5764C25.8749 33.8427 22.6868 29.482 22.6868 24.3767C22.6868 19.068 26.134 14.5644 30.9122 12.9824C30.8187 12.8842 30.7238 12.7868 30.6274 12.6904L24.9706 7.03358Z" fill="#7A7A7C" fill-opacity="0.8"/>
<path d="M30.3691 35.5798C31.7089 36.0966 33.1646 36.3799 34.6865 36.3799C41.3139 36.3799 46.6865 31.0073 46.6865 24.3799C46.6865 17.7525 41.3139 12.3799 34.6865 12.3799C33.368 12.3799 32.0992 12.5925 30.9125 12.9854C36.8748 19.2535 36.78 29.169 30.6279 35.321L30.3691 35.5798Z" fill="#7A7A7C" fill-opacity="0.8"/>
<path d="M69.607 33.0003L68.149 28.8423H60.616L59.131 33.0003H55L62.29 13.6143H66.772L74.008 33.0003H69.607ZM64.423 18.0963L61.777 25.5753H67.015L64.423 18.0963Z" fill="#7A7A7C" fill-opacity="0.8"/>
<path d="M78.7457 33.0003H74.9657V13.6143H78.7457V33.0003Z" fill="#7A7A7C" fill-opacity="0.8"/>
<path d="M95.4222 25.7913C95.4222 30.0573 92.9112 33.2703 89.0232 33.2703C87.3222 33.2703 85.8642 32.5413 84.7842 31.1373V38.2113H81.0312V18.5823H84.4872V20.6883C85.5942 19.1493 87.1872 18.3123 89.0232 18.3123C92.9112 18.3123 95.4222 21.5523 95.4222 25.7913ZM91.5612 25.7913C91.5612 23.0913 90.0222 21.6333 88.1862 21.6333C86.3502 21.6333 84.8112 23.0643 84.8112 25.7913C84.8112 28.5183 86.3502 29.9223 88.1862 29.9223C90.0222 29.9223 91.5612 28.5453 91.5612 25.7913Z" fill="#7A7A7C" fill-opacity="0.8"/>
<path d="M100.5 25.1433V33.0003H96.7471V13.6143H100.5V20.4723C101.499 19.1493 102.741 18.3123 104.631 18.3123C107.52 18.3123 109.518 20.2023 109.518 23.6853V33.0003H105.792V24.9543C105.792 22.8213 104.955 21.6333 103.254 21.6333C101.769 21.6333 100.5 22.8213 100.5 25.1433Z" fill="#7A7A7C" fill-opacity="0.8"/>
<path d="M120.258 33.0003V31.2183C119.313 32.5683 117.882 33.2703 115.911 33.2703C112.914 33.2703 110.916 31.5153 110.916 28.8153C110.916 26.0073 113.184 24.4953 117.396 24.4953C118.206 24.4953 118.908 24.5493 119.799 24.6573V23.7933C119.799 22.1733 118.881 21.2283 117.315 21.2283C115.695 21.2283 114.723 22.1733 114.588 23.7933H111.213C111.429 20.4723 113.832 18.3123 117.315 18.3123C121.095 18.3123 123.309 20.3913 123.309 23.9283V33.0003H120.258ZM114.453 28.7073C114.453 29.9223 115.317 30.6783 116.721 30.6783C118.638 30.6783 119.799 29.6253 119.799 27.9513V26.9253C118.908 26.7903 118.287 26.7363 117.639 26.7363C115.506 26.7363 114.453 27.4113 114.453 28.7073Z" fill="#7A7A7C" fill-opacity="0.8"/>
<path d="M139.157 33.0003L135.539 19.4463L131.921 33.0003H127.763L122.795 13.6143H126.791L129.923 26.7633L133.487 13.6143H137.672L141.128 26.8173L144.287 13.6143H148.31L143.315 33.0003H139.157Z" fill="#7A7A7C" fill-opacity="0.8"/>
<path d="M156.726 33.0003V31.2183C155.781 32.5683 154.35 33.2703 152.379 33.2703C149.382 33.2703 147.384 31.5153 147.384 28.8153C147.384 26.0073 149.652 24.4953 153.864 24.4953C154.674 24.4953 155.376 24.5493 156.267 24.6573V23.7933C156.267 22.1733 155.349 21.2283 153.783 21.2283C152.163 21.2283 151.191 22.1733 151.056 23.7933H147.681C147.897 20.4723 150.3 18.3123 153.783 18.3123C157.563 18.3123 159.777 20.3913 159.777 23.9283V33.0003H156.726ZM150.921 28.7073C150.921 29.9223 151.785 30.6783 153.189 30.6783C155.106 30.6783 156.267 29.6253 156.267 27.9513V26.9253C155.376 26.7903 154.755 26.7363 154.107 26.7363C151.974 26.7363 150.921 27.4113 150.921 28.7073Z" fill="#7A7A7C" fill-opacity="0.8"/>
<path d="M174.417 18.5823L169.125 33.0003H165.021L159.702 18.5823H163.752L167.181 28.7343L170.637 18.5823H174.417Z" fill="#7A7A7C" fill-opacity="0.8"/>
<path d="M180.747 33.2433C176.427 33.2433 173.538 30.2463 173.538 25.7373C173.538 21.4443 176.535 18.3123 180.693 18.3123C185.256 18.3123 188.28 22.0113 187.605 26.7093H177.372C177.615 29.0583 178.749 30.3543 180.666 30.3543C182.313 30.3543 183.42 29.5443 183.852 28.1133H187.578C186.768 31.3803 184.257 33.2433 180.747 33.2433ZM180.612 21.0663C178.857 21.0663 177.75 22.2003 177.426 24.3333H183.636C183.528 22.3353 182.394 21.0663 180.612 21.0663Z" fill="#7A7A7C" fill-opacity="0.8"/>
</svg>
