<svg width="170" height="48" viewBox="0 0 170 48" fill="none" xmlns="http://www.w3.org/2000/svg">
<path d="M10 15C10 17.7614 7.76142 20 5 20C2.23858 20 0 17.7614 0 15C0 12.2386 2.23858 10 5 10C7.76142 10 10 12.2386 10 15Z" fill="#7A7A7C" fill-opacity="0.8"/>
<path d="M10 33C10 35.7614 7.76142 38 5 38C2.23858 38 0 35.7614 0 33C0 30.2386 2.23858 28 5 28C7.76142 28 10 30.2386 10 33Z" fill="#7A7A7C" fill-opacity="0.8"/>
<path d="M28 15C28 17.7614 25.7614 20 23 20C20.2386 20 18 17.7614 18 15C18 12.2386 20.2386 10 23 10C25.7614 10 28 12.2386 28 15Z" fill="#7A7A7C" fill-opacity="0.8"/>
<path d="M28 33C28 35.7614 25.7614 38 23 38C20.2386 38 18 35.7614 18 33C18 30.2386 20.2386 28 23 28C25.7614 28 28 30.2386 28 33Z" fill="#7A7A7C" fill-opacity="0.8"/>
<path d="M54.121 13.7757V17.8527H44.563V21.3357H53.392V25.1967H44.563V32.9997H40V13.7757H54.121Z" fill="#7A7A7C" fill-opacity="0.8"/>
<path d="M67.1327 31.3257C65.8007 32.6577 64.0277 33.3237 61.8137 33.3237C59.5997 33.3237 57.8267 32.6577 56.4947 31.3257C55.1627 29.9937 54.4967 28.2297 54.4967 26.0337C54.4967 23.8197 55.1627 22.0467 56.4947 20.7147C57.8087 19.4007 59.5817 18.7437 61.8137 18.7437C64.0457 18.7437 65.8187 19.4007 67.1327 20.7147C68.4467 22.0287 69.1037 23.8017 69.1037 26.0337C69.1037 28.2477 68.4467 30.0117 67.1327 31.3257ZM61.8137 29.9487C62.7857 29.9487 63.5327 29.6157 64.0547 28.9497C64.5767 28.2837 64.8377 27.3117 64.8377 26.0337C64.8377 24.7557 64.5767 23.7837 64.0547 23.1177C63.5327 22.4517 62.7857 22.1187 61.8137 22.1187C60.8237 22.1187 60.0677 22.4517 59.5457 23.1177C59.0237 23.7837 58.7627 24.7557 58.7627 26.0337C58.7627 27.3117 59.0237 28.2837 59.5457 28.9497C60.0677 29.6157 60.8237 29.9487 61.8137 29.9487Z" fill="#7A7A7C" fill-opacity="0.8"/>
<path d="M76.8021 33.3237C74.7501 33.3237 73.1211 32.7657 71.9151 31.6497C70.7271 30.5157 70.1331 28.9767 70.1331 27.0327V19.0677H74.3721V27.0867C74.3721 27.9327 74.5971 28.5897 75.0471 29.0577C75.4971 29.5077 76.0821 29.7327 76.8021 29.7327C77.5221 29.7327 78.1071 29.5077 78.5571 29.0577C79.0071 28.5897 79.2321 27.9327 79.2321 27.0867V19.0677H83.4711V27.0327C83.4711 28.9947 82.8681 30.5247 81.6621 31.6227C80.4381 32.7567 78.8181 33.3237 76.8021 33.3237Z" fill="#7A7A7C" fill-opacity="0.8"/>
<path d="M93.46 18.8517C93.532 18.8517 93.838 18.8697 94.378 18.9057V22.7397H93.298C90.832 22.7397 89.599 23.9997 89.599 26.5197V32.9997H85.387V19.0677H89.491V21.6597C90.139 19.7877 91.462 18.8517 93.46 18.8517Z" fill="#7A7A7C" fill-opacity="0.8"/>
<path d="M103.868 18.7437C105.74 18.7437 107.225 19.4007 108.323 20.7147C109.403 22.0287 109.943 23.8017 109.943 26.0337C109.943 28.2657 109.403 30.0387 108.323 31.3527C107.225 32.6667 105.74 33.3237 103.868 33.3237C102.086 33.3237 100.718 32.6487 99.7641 31.2987V38.2917H95.5521V19.0677H99.6561V20.9307C100.61 19.4727 102.014 18.7437 103.868 18.7437ZM102.707 29.9487C103.643 29.9487 104.372 29.6067 104.894 28.9227C105.416 28.2207 105.677 27.2217 105.677 25.9257C105.677 23.3877 104.687 22.1187 102.707 22.1187C100.709 22.1187 99.7101 23.4237 99.7101 26.0337C99.7101 28.6437 100.709 29.9487 102.707 29.9487Z" fill="#7A7A7C" fill-opacity="0.8"/>
<path d="M123.323 31.3257C121.991 32.6577 120.218 33.3237 118.004 33.3237C115.79 33.3237 114.017 32.6577 112.685 31.3257C111.353 29.9937 110.687 28.2297 110.687 26.0337C110.687 23.8197 111.353 22.0467 112.685 20.7147C113.999 19.4007 115.772 18.7437 118.004 18.7437C120.236 18.7437 122.009 19.4007 123.323 20.7147C124.637 22.0287 125.294 23.8017 125.294 26.0337C125.294 28.2477 124.637 30.0117 123.323 31.3257ZM118.004 29.9487C118.976 29.9487 119.723 29.6157 120.245 28.9497C120.767 28.2837 121.028 27.3117 121.028 26.0337C121.028 24.7557 120.767 23.7837 120.245 23.1177C119.723 22.4517 118.976 22.1187 118.004 22.1187C117.014 22.1187 116.258 22.4517 115.736 23.1177C115.214 23.7837 114.953 24.7557 114.953 26.0337C114.953 27.3117 115.214 28.2837 115.736 28.9497C116.258 29.6157 117.014 29.9487 118.004 29.9487Z" fill="#7A7A7C" fill-opacity="0.8"/>
<path d="M128.72 17.6097C128.108 17.6097 127.586 17.4027 127.154 16.9887C126.74 16.5567 126.533 16.0437 126.533 15.4497C126.533 14.8377 126.74 14.3247 127.154 13.9107C127.586 13.4787 128.108 13.2627 128.72 13.2627C129.314 13.2627 129.818 13.4787 130.232 13.9107C130.664 14.3247 130.88 14.8377 130.88 15.4497C130.88 16.0437 130.664 16.5567 130.232 16.9887C129.818 17.4027 129.314 17.6097 128.72 17.6097ZM130.826 32.9997H126.614V19.0677H130.826V32.9997Z" fill="#7A7A7C" fill-opacity="0.8"/>
<path d="M155.57 19.0677V22.1457H152.897V28.6527C152.897 29.1207 153.014 29.4447 153.248 29.6247C153.482 29.7867 153.896 29.8677 154.49 29.8677H155.57V32.9997C155.066 33.0717 154.418 33.1077 153.626 33.1077C151.88 33.1077 150.62 32.8017 149.846 32.1897C149.072 31.5597 148.685 30.5337 148.685 29.1117V22.1457H146.606V19.0677H148.685V14.9367H152.897V19.0677H155.57Z" fill="#7A7A7C" fill-opacity="0.8"/>
<path d="M162.731 33.4047C160.535 33.4047 158.897 33.0267 157.817 32.2707C156.755 31.4967 156.161 30.2637 156.035 28.5717H160.139C160.211 29.3097 160.445 29.8317 160.841 30.1377C161.255 30.4437 161.912 30.5967 162.812 30.5967C164.378 30.5967 165.161 30.1467 165.161 29.2467C165.161 28.8147 164.99 28.4907 164.648 28.2747C164.306 28.0407 163.676 27.8517 162.758 27.7077L160.949 27.4107C157.817 26.9247 156.251 25.5027 156.251 23.1447C156.251 21.7407 156.791 20.6607 157.871 19.9047C158.951 19.1307 160.499 18.7437 162.515 18.7437C166.673 18.7437 168.833 20.3367 168.995 23.5227H165.08C165.062 22.2087 164.207 21.5517 162.515 21.5517C161.093 21.5517 160.382 21.9927 160.382 22.8747C160.382 23.2707 160.544 23.5767 160.868 23.7927C161.192 24.0087 161.705 24.1707 162.407 24.2787L164.486 24.5757C166.16 24.8277 167.393 25.3047 168.185 26.0067C168.977 26.7087 169.373 27.6717 169.373 28.8957C169.373 30.3357 168.788 31.4517 167.618 32.2437C166.466 33.0177 164.837 33.4047 162.731 33.4047Z" fill="#7A7A7C" fill-opacity="0.8"/>
<path d="M139.409 18.7437C137.357 18.7437 135.728 19.3017 134.522 20.4177C133.334 21.5517 132.74 23.0907 132.74 25.0347V32.9997H136.979V24.9807C136.979 24.1347 137.204 23.4777 137.654 23.0097C138.104 22.5597 138.689 22.3347 139.409 22.3347C140.129 22.3347 140.714 22.5597 141.164 23.0097C141.614 23.4777 141.839 24.1347 141.839 24.9807V32.9997H146.078V25.0347C146.078 23.0727 145.475 21.5427 144.269 20.4447C143.045 19.3107 141.425 18.7437 139.409 18.7437Z" fill="#7A7A7C" fill-opacity="0.8"/>
</svg>
