<svg width="200" height="48" viewBox="0 0 200 48" fill="none" xmlns="http://www.w3.org/2000/svg">
<path d="M22.16 23.08L13.32 14.24L22.16 5.4L31 14.24L22.16 23.08ZM33.44 34.36L24.6 25.52L33.44 16.68L42.28 25.52L33.44 34.36ZM10.88 34.36L2.04 25.52L10.88 16.68L19.72 25.52L10.88 34.36ZM22.16 45.64L13.32 36.8L22.16 27.96L31 36.8L22.16 45.64Z" fill="#367AFF"/>
<path d="M66.5044 24.88H57.1844V40H51.7444V8.32H66.5044V12.96H57.1844V19.24H66.5044V24.88ZM101.483 24.44C101.483 28.92 99.9234 32.72 96.8034 35.84C93.6834 38.96 89.8834 40.52 85.4034 40.52C80.8968 40.52 77.0834 38.9733 73.9634 35.88C70.8434 32.76 69.2834 28.9467 69.2834 24.44C69.2834 19.9333 70.8434 16.12 73.9634 13C77.0834 9.88 80.8968 8.32 85.4034 8.32C89.9101 8.32 93.7101 9.88 96.8034 13C99.9234 16.12 101.483 19.9333 101.483 24.44ZM96.0834 24.44C96.0834 21.4533 95.0434 18.92 92.9634 16.84C90.9101 14.76 88.3901 13.72 85.4034 13.72C82.3901 13.72 79.8434 14.76 77.7634 16.84C75.7101 18.8933 74.6834 21.4267 74.6834 24.44C74.6834 27.4267 75.7234 29.96 77.8034 32.04C79.8834 34.0933 82.4168 35.12 85.4034 35.12C88.3901 35.12 90.9101 34.0933 92.9634 32.04C95.0434 29.96 96.0834 27.4267 96.0834 24.44ZM123.725 40H118.325L118.285 35.04C118.285 33.52 117.779 32.2533 116.765 31.24C115.752 30.2267 114.499 29.72 113.005 29.72H109.605V40H104.205V8.32H113.045C116.059 8.32 118.592 9.36 120.645 11.44C122.699 13.4933 123.725 16.0267 123.725 19.04C123.725 22.24 122.525 24.9067 120.125 27.04C122.525 29.1733 123.725 31.84 123.725 35.04V40ZM118.325 19.04C118.352 17.5467 117.845 16.2933 116.805 15.28C115.792 14.24 114.539 13.72 113.045 13.72H109.605V24.32H113.005C114.499 24.32 115.752 23.8133 116.765 22.8C117.779 21.7867 118.299 20.5333 118.325 19.04ZM161.791 40H155.031L151.991 23.8L143.351 40.72L134.991 23.6L131.791 40H125.071L133.271 8.44L143.351 29.04L153.831 8.48L161.791 40ZM182.909 31.12C182.962 32.9333 182.589 34.5067 181.789 35.84C180.002 38.7733 176.882 40.32 172.429 40.48C170.402 40.56 168.175 40.0667 165.749 39L165.829 32.96C166.229 33.28 166.749 33.6533 167.389 34.08C168.535 34.8533 169.829 35.24 171.269 35.24C175.082 35.24 176.989 33.88 176.989 31.16V31.08C176.989 29.8267 176.295 28.8 174.909 28C174.162 27.5733 172.775 27.0667 170.749 26.48C169.949 26.24 169.082 25.9467 168.149 25.6C164.869 23.76 163.229 21.0933 163.229 17.6V17.36C163.229 15.76 163.669 14.2667 164.549 12.88C165.429 11.4667 166.589 10.3733 168.029 9.6C169.495 8.8 171.069 8.37333 172.749 8.32C175.015 8.26667 177.149 8.69333 179.149 9.6V15.32C177.682 14.04 175.749 13.4 173.349 13.4C172.469 13.4 171.655 13.6267 170.909 14.08C169.762 14.7733 169.189 15.7867 169.189 17.12C169.189 18.9333 170.522 20.24 173.189 21.04C173.669 21.2 174.615 21.4933 176.029 21.92C178.429 22.64 180.149 23.72 181.189 25.16C182.255 26.6 182.829 28.5867 182.909 31.12Z" fill="#1A2423"/>
</svg>
