<svg width="202" height="48" viewBox="0 0 202 48" fill="none" xmlns="http://www.w3.org/2000/svg">
<path d="M0 9C0 6.23858 2.23858 4 5 4H15C17.7614 4 20 6.23858 20 9V18.8192C20.0002 18.8792 20.0003 18.9395 20.0003 19C20.0003 21.7575 22.2325 23.9936 24.9884 24C24.9923 24 24.9961 24 25 24H35C37.7614 24 40 26.2386 40 29V39C40 41.7614 37.7614 44 35 44H25C22.2386 44 20 41.7614 20 39V29C20 28.9861 20.0001 28.9723 20.0002 28.9584C19.9778 26.2162 17.7479 24 15.0003 24C14.9874 24 14.9745 24 14.9616 24H5C2.23858 24 0 21.7614 0 19V9Z" fill="#7A7A7C" fill-opacity="0.8"/>
<path fill-rule="evenodd" clip-rule="evenodd" d="M94.1525 33.3604C92.7525 33.3604 91.5025 33.0204 90.4025 32.3404C89.3025 31.6604 88.4325 30.7304 87.7925 29.5504C87.1525 28.3704 86.8325 27.0304 86.8325 25.5304C86.8325 24.0304 87.1525 22.7004 87.7925 21.5404C88.4325 20.3604 89.3025 19.4404 90.4025 18.7804C91.5025 18.1004 92.7525 17.7604 94.1525 17.7604C95.2725 17.7604 96.2525 17.9704 97.0925 18.3904C97.9325 18.8104 98.6125 19.4004 99.1325 20.1604V11.4004H102.973V33.0004H99.5525L99.1325 30.8704C98.6525 31.5304 98.0125 32.1104 97.2125 32.6104C96.4325 33.1104 95.4125 33.3604 94.1525 33.3604ZM94.9625 30.0004C96.2025 30.0004 97.2125 29.5904 97.9925 28.7704C98.7925 27.9304 99.1925 26.8604 99.1925 25.5604C99.1925 24.2604 98.7925 23.2004 97.9925 22.3804C97.2125 21.5404 96.2025 21.1204 94.9625 21.1204C93.7425 21.1204 92.7325 21.5304 91.9325 22.3504C91.1325 23.1704 90.7325 24.2304 90.7325 25.5304C90.7325 26.8304 91.1325 27.9004 91.9325 28.7404C92.7325 29.5804 93.7425 30.0004 94.9625 30.0004Z" fill="#7A7A7C" fill-opacity="0.8"/>
<path d="M54.74 32.0104C56.26 32.9104 58.08 33.3604 60.2 33.3604C62.72 33.3604 64.78 32.7504 66.38 31.5304C68 30.3104 69.01 28.6204 69.41 26.4604H65.18C64.92 27.5404 64.36 28.3904 63.5 29.0104C62.66 29.6104 61.54 29.9104 60.14 29.9104C58.2 29.9104 56.68 29.2604 55.58 27.9604C54.48 26.6404 53.93 24.8304 53.93 22.5304C53.93 20.2304 54.48 18.4204 55.58 17.1004C56.68 15.7804 58.2 15.1204 60.14 15.1204C61.54 15.1204 62.66 15.4504 63.5 16.1104C64.36 16.7504 64.92 17.6404 65.18 18.7804H69.41C69.01 16.5204 68 14.7704 66.38 13.5304C64.78 12.2704 62.72 11.6404 60.2 11.6404C58.08 11.6404 56.26 12.1004 54.74 13.0204C53.22 13.9404 52.05 15.2204 51.23 16.8604C50.41 18.5004 50 20.3904 50 22.5304C50 24.6704 50.41 26.5604 51.23 28.2004C52.05 29.8204 53.22 31.0904 54.74 32.0104Z" fill="#7A7A7C" fill-opacity="0.8"/>
<path fill-rule="evenodd" clip-rule="evenodd" d="M74.1591 32.3704C75.3191 33.0304 76.6191 33.3604 78.0591 33.3604C79.4791 33.3604 80.7691 33.0304 81.9291 32.3704C83.0891 31.7104 83.9991 30.8004 84.6591 29.6404C85.3391 28.4604 85.6791 27.1004 85.6791 25.5604C85.6791 24.0204 85.3391 22.6704 84.6591 21.5104C83.9991 20.3304 83.0891 19.4104 81.9291 18.7504C80.7891 18.0904 79.5091 17.7604 78.0891 17.7604C76.6491 17.7604 75.3491 18.0904 74.1891 18.7504C73.0491 19.4104 72.1391 20.3304 71.4591 21.5104C70.7791 22.6704 70.4391 24.0204 70.4391 25.5604C70.4391 27.1004 70.7691 28.4604 71.4291 29.6404C72.1091 30.8004 73.0191 31.7104 74.1591 32.3704ZM80.6691 28.9204C79.9291 29.6604 79.0591 30.0304 78.0591 30.0304C77.0591 30.0304 76.1891 29.6604 75.4491 28.9204C74.7291 28.1604 74.3691 27.0404 74.3691 25.5604C74.3691 24.0804 74.7291 22.9704 75.4491 22.2304C76.1891 21.4704 77.0691 21.0904 78.0891 21.0904C79.0691 21.0904 79.9291 21.4704 80.6691 22.2304C81.4091 22.9704 81.7791 24.0804 81.7791 25.5604C81.7791 27.0404 81.4091 28.1604 80.6691 28.9204Z" fill="#7A7A7C" fill-opacity="0.8"/>
<path fill-rule="evenodd" clip-rule="evenodd" d="M108.323 32.4004C109.483 33.0404 110.813 33.3604 112.313 33.3604C113.513 33.3604 114.583 33.1404 115.523 32.7004C116.483 32.2604 117.283 31.6604 117.923 30.9004C118.583 30.1204 119.053 29.2604 119.333 28.3204H115.433C115.173 28.8804 114.773 29.3404 114.233 29.7004C113.713 30.0404 113.063 30.2104 112.283 30.2104C111.243 30.2104 110.353 29.8804 109.613 29.2204C108.893 28.5604 108.493 27.6504 108.413 26.4904H119.723C119.743 26.2304 119.753 25.9804 119.753 25.7404C119.773 25.5004 119.783 25.2704 119.783 25.0504C119.783 23.6904 119.463 22.4604 118.823 21.3604C118.203 20.2404 117.333 19.3604 116.213 18.7204C115.093 18.0804 113.803 17.7604 112.343 17.7604C110.783 17.7604 109.423 18.1004 108.263 18.7804C107.123 19.4404 106.223 20.3704 105.563 21.5704C104.923 22.7704 104.603 24.1404 104.603 25.6804C104.603 27.2004 104.933 28.5404 105.593 29.7004C106.253 30.8604 107.163 31.7604 108.323 32.4004ZM109.853 21.6904C110.573 21.1504 111.403 20.8804 112.343 20.8804C113.323 20.8804 114.143 21.1704 114.803 21.7504C115.463 22.3304 115.823 23.1104 115.883 24.0904H108.473C108.673 23.0104 109.133 22.2104 109.853 21.6904Z" fill="#7A7A7C" fill-opacity="0.8"/>
<path d="M128.503 33.3604C126.983 33.3604 125.643 33.0304 124.483 32.3704C123.323 31.7104 122.403 30.7904 121.723 29.6104C121.062 28.4304 120.733 27.0804 120.733 25.5604C120.733 24.0404 121.062 22.6904 121.723 21.5104C122.403 20.3304 123.323 19.4104 124.483 18.7504C125.643 18.0904 126.983 17.7604 128.503 17.7604C130.403 17.7604 132.003 18.2604 133.303 19.2604C134.603 20.2404 135.433 21.6004 135.793 23.3404H131.743C131.543 22.6204 131.143 22.0604 130.543 21.6604C129.963 21.2404 129.273 21.0304 128.473 21.0304C127.413 21.0304 126.513 21.4304 125.773 22.2304C125.033 23.0304 124.663 24.1404 124.663 25.5604C124.663 26.9804 125.033 28.0904 125.773 28.8904C126.513 29.6904 127.413 30.0904 128.473 30.0904C129.273 30.0904 129.963 29.8904 130.543 29.4904C131.143 29.0904 131.543 28.5204 131.743 27.7804H135.793C135.433 29.4604 134.603 30.8104 133.303 31.8304C132.003 32.8504 130.403 33.3604 128.503 33.3604Z" fill="#7A7A7C" fill-opacity="0.8"/>
<path d="M141.181 20.9104L140.821 18.1204H137.401V33.0004H141.241V26.2204C141.241 25.0804 141.421 24.1904 141.781 23.5504C142.161 22.9104 142.681 22.4604 143.341 22.2004C144.001 21.9404 144.751 21.8104 145.591 21.8104H146.671V17.7604C145.411 17.7604 144.311 18.0504 143.371 18.6304C142.451 19.1904 141.721 19.9504 141.181 20.9104Z" fill="#7A7A7C" fill-opacity="0.8"/>
<path fill-rule="evenodd" clip-rule="evenodd" d="M152.625 33.3604C151.345 33.3604 150.295 33.1604 149.475 32.7604C148.655 32.3404 148.045 31.7904 147.645 31.1104C147.245 30.4304 147.045 29.6804 147.045 28.8604C147.045 27.4804 147.585 26.3604 148.665 25.5004C149.745 24.6404 151.365 24.2104 153.525 24.2104H157.305V23.8504C157.305 22.8304 157.015 22.0804 156.435 21.6004C155.855 21.1204 155.135 20.8804 154.275 20.8804C153.495 20.8804 152.815 21.0704 152.235 21.4504C151.655 21.8104 151.295 22.3504 151.155 23.0704H147.405C147.505 21.9904 147.865 21.0504 148.485 20.2504C149.125 19.4504 149.945 18.8404 150.945 18.4204C151.945 17.9804 153.065 17.7604 154.305 17.7604C156.425 17.7604 158.095 18.2904 159.315 19.3504C160.535 20.4104 161.145 21.9104 161.145 23.8504V33.0004H157.875L157.515 30.6004C157.075 31.4004 156.455 32.0604 155.655 32.5804C154.875 33.1004 153.865 33.3604 152.625 33.3604ZM153.495 30.3604C154.595 30.3604 155.445 30.0004 156.045 29.2804C156.665 28.5604 157.055 27.6704 157.215 26.6104H153.945C152.925 26.6104 152.195 26.8004 151.755 27.1804C151.315 27.5404 151.095 27.9904 151.095 28.5304C151.095 29.1104 151.315 29.5604 151.755 29.8804C152.195 30.2004 152.775 30.3604 153.495 30.3604Z" fill="#7A7A7C" fill-opacity="0.8"/>
<path d="M165.05 12.5404C164.15 13.3004 163.7 14.5804 163.7 16.3804V18.1204H161.66V21.3304H163.7V33.0004H167.54V21.3304H173.461V27.8104C173.461 29.7504 173.931 31.1004 174.871 31.8604C175.811 32.6204 177.061 33.0004 178.621 33.0004H181.231V29.7304H179.371C178.611 29.7304 178.071 29.6004 177.751 29.3404C177.451 29.0604 177.301 28.5604 177.301 27.8404V21.3304H181.321V18.1204H177.301V14.1304H173.911L173.461 18.1204H167.54V16.3804C167.54 15.7604 167.68 15.3204 167.96 15.0604C168.24 14.8004 168.71 14.6704 169.37 14.6704H170.42V11.4004H168.77C167.21 11.4004 165.97 11.7804 165.05 12.5404Z" fill="#7A7A7C" fill-opacity="0.8"/>
<path d="M182.488 34.1404V37.8004H201.678V34.1404H182.488Z" fill="#7A7A7C" fill-opacity="0.8"/>
</svg>
